<svg width="162" height="148" viewBox="0 0 162 148" fill="none" xmlns="http://www.w3.org/2000/svg">
<circle cx="81" cy="74.5" r="71.5" fill="#F7F7F7"/>
<g clip-path="url(#clip0_873_81360)">
<path d="M123.815 110.928C123.665 111.136 123.513 111.343 123.363 111.548C122.931 111.844 122.419 112.001 121.894 112H41.1062C40.6052 112.001 40.1148 111.857 39.6943 111.586C39.5548 111.404 39.4169 111.22 39.2773 111.036L39.4169 110.96L80.3152 88.4627C80.6781 88.2635 81.0858 88.1587 81.5005 88.1582C81.9152 88.1577 82.3233 88.2614 82.6867 88.4596L123.677 110.852L123.815 110.928Z" fill="#527CE5"/>
<path d="M121.832 63.7313L121.861 63.7478L121.894 63.7478C122.552 63.7488 123.183 64.0086 123.648 64.4701C124.113 64.9316 124.374 65.557 124.375 66.2092V109.414C124.374 110.066 124.112 110.691 123.647 111.153C123.182 111.614 122.552 111.874 121.894 111.875H41.1062C40.4481 111.874 39.8173 111.615 39.3522 111.153C38.8872 110.692 38.6258 110.066 38.625 109.414L38.625 66.2091C38.626 65.557 38.8874 64.9316 39.3524 64.4701C39.8175 64.0086 40.4482 63.7488 41.1062 63.7478L41.1394 63.7478L41.1681 63.7313L76.7025 43.4126C78.1753 42.5705 79.8454 42.1276 81.5452 42.1284C83.245 42.1293 84.9147 42.5738 86.3866 43.4173L121.832 63.7313ZM124.318 109.414V109.414V66.209V66.2089C124.318 65.5705 124.062 64.9587 123.607 64.5075C123.161 64.0643 122.558 63.8118 121.928 63.8024L86.5109 43.5047C85.0011 42.6394 83.2886 42.1835 81.5453 42.1827C79.802 42.1818 78.0891 42.6361 76.5784 43.4998L41.0724 63.8024C40.4421 63.8118 39.8395 64.0643 39.3929 64.5075C38.9383 64.9587 38.6824 65.5705 38.6816 66.2089V66.209L38.6816 109.414L38.6816 109.414C38.6828 110.052 38.9388 110.664 39.3933 111.115C39.8477 111.566 40.4635 111.82 41.1058 111.821H41.1061H121.894H121.894C122.536 111.819 123.152 111.565 123.606 111.115C124.061 110.664 124.317 110.052 124.318 109.414Z" fill="#FEFEFE" stroke="black" stroke-width="0.25"/>
<path d="M81.9025 87.9909C81.6355 87.9918 81.3703 87.9476 81.1182 87.8603L81.0718 87.844L81.0624 87.7418C81.0335 87.7559 81.0044 87.7694 80.9752 87.7822L80.9443 87.7956L80.9135 87.7821C80.8489 87.7539 80.7847 87.7221 80.7228 87.6875L52.5 71.9492V39.8144C52.5008 39.0682 52.7999 38.3529 53.3316 37.8252C53.8632 37.2976 54.5841 37.0008 55.336 37H108.377C109.129 37.0008 109.85 37.2976 110.381 37.8252C110.913 38.3529 111.212 39.0682 111.213 39.8144V71.9902L111.174 72.0121L83.0821 87.6875C82.7215 87.887 82.3154 87.9915 81.9025 87.9909Z" fill="white"/>
<path d="M81.5451 88.018H81.5457C81.9504 88.0186 82.3485 87.9162 82.7018 87.7207L81.5451 88.018ZM81.5451 88.018C81.2836 88.0189 81.0239 87.9757 80.7771 87.8901L81.5451 88.018ZM80.8136 87.8478L80.8058 87.7624L80.7957 87.6523L80.7572 87.6738L80.6962 87.5647L80.7572 87.6739C80.7192 87.6951 80.6806 87.7151 80.6414 87.7338L80.5874 87.7596L80.5335 87.7338C80.4944 87.7151 80.4558 87.6951 80.4177 87.6738L80.8136 87.8478ZM80.8136 87.8478L80.896 87.8713C81.4911 88.0408 82.1296 87.9701 82.6724 87.6744L82.6735 87.6738L110.687 72.042L110.751 72.0062V71.9328V39.8905V39.8903C110.75 39.1712 110.462 38.482 109.95 37.9739C109.438 37.4657 108.744 37.1801 108.02 37.1793H108.02L54.9791 37.1793L54.9789 37.1793C54.2552 37.1801 53.5611 37.4657 53.0491 37.9739C52.537 38.482 52.2488 39.1712 52.248 39.8903V39.8905V71.8917V71.9651L52.3121 72.0008L54.1501 73.0252L54.1501 73.0252L80.4176 87.6738L80.8136 87.8478ZM110.808 72.0374L82.7022 87.7205L80.7767 87.89L80.7602 87.8842L80.7478 87.7485L80.5891 87.8176L80.5874 87.8184L80.5757 87.8133C80.5126 87.7857 80.4499 87.7546 80.3893 87.7207L80.3891 87.7206L52.1914 71.9964V39.8905C52.1923 39.1576 52.486 38.4548 53.0085 37.9363C53.5311 37.4177 54.2398 37.1258 54.9792 37.125L108.02 37.125C108.759 37.1259 109.468 37.4177 109.991 37.9363C110.513 38.4548 110.807 39.1577 110.808 39.8906V72.0374Z" fill="white" stroke="black" stroke-width="0.25"/>
<path d="M80.788 87.8648C81.0319 87.9491 81.2884 87.9918 81.5467 87.991C81.9465 87.9917 82.3397 87.8906 82.6888 87.6974M80.788 87.8648L82.6888 87.6974M80.788 87.8648C80.7201 87.8433 80.6535 87.8179 80.5886 87.7887L80.788 87.8648ZM82.6888 87.6974L82.6283 87.5881C82.6282 87.5881 82.6281 87.5882 82.628 87.5882L82.6279 87.5883L82.6888 87.6974ZM39.2922 64.5642L39.2922 64.5642C39.2856 64.5605 39.2777 64.5595 39.2703 64.5616C39.2628 64.5637 39.2568 64.5685 39.2533 64.5746L39.1447 64.5129L39.2922 64.5642ZM39.2922 64.5642L52.16 71.7402L52.1601 71.7402M39.2922 64.5642L52.1601 71.7402M52.1601 71.7402L54.0763 72.8081L54.0763 72.8081L80.4941 87.5404L80.4941 87.5404M52.1601 71.7402L80.4941 87.5404M80.4941 87.5404C80.5871 87.5922 80.6838 87.637 80.7836 87.6744M80.4941 87.5404L82.5995 87.5404M82.5995 87.5404L82.5992 87.5405C82.3449 87.6815 82.0645 87.7699 81.7749 87.8004C81.4855 87.8309 81.1928 87.803 80.9145 87.7183C80.8708 87.7054 80.8267 87.6908 80.7836 87.6744M82.5995 87.5404L110.842 71.7828L110.781 71.6736M82.5995 87.5404L110.781 71.6736M80.7836 87.6744C80.7835 87.6744 80.7834 87.6743 80.7833 87.6743L80.8278 87.5575M80.7836 87.6744C80.7837 87.6744 80.7838 87.6745 80.7839 87.6745L80.8278 87.5575M80.8278 87.5575C80.8677 87.5727 80.9091 87.5864 80.9505 87.5985L80.555 87.4312C80.6426 87.48 80.7338 87.5222 80.8278 87.5575ZM110.781 71.6736L110.842 71.7828L112.758 70.7133L123.732 64.5901L123.732 64.59M110.781 71.6736L123.732 64.59M123.732 64.59C123.736 64.5882 123.739 64.587 123.743 64.5866L123.728 64.4625M123.732 64.59L123.728 64.4625M123.728 64.4625L123.743 64.5866C123.747 64.5861 123.751 64.5864 123.754 64.5874L123.788 64.467L123.728 64.4625ZM52.2818 71.8717L52.2818 71.8717L52.2209 71.9809L52.2818 71.8717ZM39.2029 64.7213L39.2647 64.6126C39.2646 64.6126 39.2645 64.6125 39.2644 64.6125L39.2638 64.6121L39.2029 64.7213ZM123.761 64.6365L123.822 64.7456L123.761 64.6365L123.761 64.6365Z" fill="white" stroke="black" stroke-width="0.25"/>
<path d="M63.6515 47.0405H59.3592C59.0339 47.0405 58.722 46.9123 58.492 46.6841C58.262 46.4558 58.1328 46.1463 58.1328 45.8235C58.1328 45.5007 58.262 45.1911 58.492 44.9629C58.722 44.7347 59.0339 44.6064 59.3592 44.6064H63.6515C63.9768 44.6064 64.2887 44.7347 64.5187 44.9629C64.7487 45.1911 64.8779 45.5007 64.8779 45.8235C64.8779 46.1463 64.7487 46.4558 64.5187 46.6841C64.2887 46.9123 63.9768 47.0405 63.6515 47.0405Z" fill="#527CE5"/>
<path d="M68.7104 51.1479H59.3592C59.0339 51.1479 58.722 51.0197 58.492 50.7915C58.262 50.5632 58.1328 50.2537 58.1328 49.9309C58.1328 49.6081 58.262 49.2986 58.492 49.0703C58.722 48.8421 59.0339 48.7139 59.3592 48.7139H68.7104C69.0356 48.7139 69.3475 48.8421 69.5775 49.0703C69.8075 49.2986 69.9367 49.6081 69.9367 49.9309C69.9367 50.2537 69.8075 50.5632 69.5775 50.7915C69.3475 51.0197 69.0356 51.1479 68.7104 51.1479Z" fill="#DFE8FA"/>
<path d="M94.8367 62.1016H68.3162C67.991 62.1016 67.679 61.9733 67.449 61.7451C67.2191 61.5169 67.0898 61.2073 67.0898 60.8845C67.0898 60.5617 67.2191 60.2522 67.449 60.0239C67.679 59.7957 67.991 59.6675 68.3162 59.6675H94.8367C95.162 59.6675 95.4739 59.7957 95.7039 60.0239C95.9339 60.2522 96.0631 60.5617 96.0631 60.8845C96.0631 61.2073 95.9339 61.5169 95.7039 61.7451C95.4739 61.9733 95.162 62.1016 94.8367 62.1016Z" fill="#527CE5"/>
<path d="M97.2901 66.8174H65.7108C65.3855 66.8174 65.0736 66.6892 64.8436 66.4609C64.6136 66.2327 64.4844 65.9231 64.4844 65.6003C64.4844 65.2776 64.6136 64.968 64.8436 64.7398C65.0736 64.5115 65.3855 64.3833 65.7108 64.3833H97.2901C97.6153 64.3833 97.9273 64.5115 98.1573 64.7398C98.3873 64.968 98.5165 65.2776 98.5165 65.6003C98.5165 65.9231 98.3873 66.2327 98.1573 66.4609C97.9273 66.6892 97.6153 66.8174 97.2901 66.8174Z" fill="#DFE8FA"/>
<path d="M97.2901 71.3813H65.7108C65.3855 71.3813 65.0736 71.2531 64.8436 71.0249C64.6136 70.7966 64.4844 70.4871 64.4844 70.1643C64.4844 69.8415 64.6136 69.532 64.8436 69.3037C65.0736 69.0755 65.3855 68.9473 65.7108 68.9473H97.2901C97.6153 68.9473 97.9273 69.0755 98.1573 69.3037C98.3873 69.532 98.5165 69.8415 98.5165 70.1643C98.5165 70.4871 98.3873 70.7966 98.1573 71.0249C97.9273 71.2531 97.6153 71.3813 97.2901 71.3813Z" fill="#DFE8FA"/>
</g>
<defs>
<clipPath id="clip0_873_81360">
<rect width="86" height="75" fill="white" transform="translate(38.5 37)"/>
</clipPath>
</defs>
</svg>
