<svg width="388" height="232" viewBox="0 0 388 232" fill="none" xmlns="http://www.w3.org/2000/svg">
<g clip-path="url(#clip0_577_18360)">
<path d="M297.062 229.376C292.094 225.178 289.077 218.547 289.868 212.091C290.66 205.635 295.561 199.7 301.918 198.329C308.275 196.958 315.522 200.753 317.453 206.964C318.516 194.99 319.74 182.514 326.106 172.316C331.87 163.083 341.853 156.476 352.672 155.294C363.492 154.112 374.883 158.576 381.631 167.117C388.378 175.658 390.03 188.074 385.305 197.88C381.823 205.103 375.409 210.479 368.689 214.852C346.973 228.865 320.929 234.563 295.346 230.899L297.062 229.376Z" fill="#5DA64E"/>
<path d="M370.932 158.824C362.004 166.096 353.814 174.23 346.48 183.107C335.003 196.952 325.715 212.475 318.94 229.135C318.444 230.35 320.418 230.879 320.908 229.677C331.992 202.602 349.687 178.737 372.375 160.267C373.393 159.437 371.942 158.001 370.932 158.824Z" fill="#121212"/>
<path d="M124.903 228.236C131.726 222.47 135.871 213.361 134.784 204.494C133.697 195.627 126.965 187.475 118.234 185.592C109.502 183.709 99.5483 188.922 96.8962 197.452C95.4366 181.006 93.7547 163.87 85.0117 149.864C77.095 137.181 63.3833 128.107 48.5228 126.483C33.6624 124.86 18.0162 130.992 8.74831 142.722C-0.519606 154.453 -2.78882 171.507 3.70219 184.975C8.48389 194.896 17.2935 202.28 26.5237 208.286C55.9714 227.45 92.5012 235.443 127.26 230.327" fill="#5DA64E"/>
<path d="M23.4436 131.331C35.7053 141.32 46.9541 152.492 57.0273 164.684C67.1022 176.865 75.972 189.994 83.5122 203.887C87.7268 211.68 91.5129 219.698 94.8535 227.904C95.5347 229.573 92.8243 230.3 92.1508 228.649C86.2336 214.182 78.913 200.329 70.2939 187.29C61.7166 174.298 51.8995 162.169 40.9804 151.072C34.8045 144.8 28.2884 138.871 21.4616 133.314C20.0623 132.174 22.0558 130.201 23.4436 131.331Z" fill="#121212"/>
<path d="M278.513 231.492H115.731V64.4521C115.731 28.913 144.64 0 180.175 0H214.069C249.603 0 278.513 28.913 278.513 64.4521V231.492Z" fill="#FEFEFE"/>
<path d="M128.934 25.368C128.629 25.762 128.334 26.1603 128.038 26.5639L128.934 25.368ZM128.934 25.368C132.818 20.2725 137.441 15.785 142.65 12.0536L128.934 25.368ZM244.118 64.452V230.992H116.231L116.231 64.452L116.231 64.4507C116.196 50.9396 120.473 37.77 128.441 26.8593C128.737 26.4569 129.029 26.0626 129.33 25.6738L129.332 25.6711C133.186 20.6152 137.773 16.1625 142.941 12.46L142.941 12.4601L142.944 12.4579C143.235 12.2461 143.527 12.0377 143.825 11.8289C148.149 8.83643 152.826 6.39014 157.75 4.54567L157.752 4.54498C158.045 4.43382 158.342 4.32308 158.638 4.21716C163.092 2.62759 167.709 1.53873 172.403 0.970694L172.403 0.970753L172.411 0.969713C172.695 0.930907 172.988 0.900342 173.291 0.868831L173.292 0.868683C177.868 0.379384 182.483 0.379384 187.058 0.868685L187.059 0.868813L187.064 0.869336C187.364 0.900671 187.656 0.931114 187.942 0.970151L187.942 0.970208L187.949 0.971121C192.643 1.53921 197.259 2.62798 201.712 4.21731C202.008 4.32319 202.304 4.43389 202.598 4.54527L202.6 4.54592C207.464 6.36729 212.087 8.77736 216.365 11.7223L216.365 11.7226C216.662 11.9265 216.959 12.1351 217.253 12.344C220.15 14.4122 222.871 16.7163 225.388 19.2328C227.407 21.2511 229.288 23.4025 231.019 25.6725L231.021 25.6751C231.321 26.0628 231.613 26.4571 231.908 26.859C239.876 37.7698 244.154 50.9395 244.118 64.4507V64.452Z" fill="#C6D7F8" stroke="#121212"/>
<path d="M240.774 149.645C240.774 153.31 237.803 156.281 234.138 156.281C230.473 156.281 227.502 153.31 227.502 149.645C227.502 145.979 230.473 143.008 234.138 143.008C237.803 143.008 240.774 145.979 240.774 149.645Z" fill="#121212" stroke="#121212"/>
<path d="M264.678 225.989H260.152L257.674 205.897L264.678 205.897L264.678 225.989Z" fill="#F9E9E7" stroke="#121212"/>
<path d="M255.804 225.427H265.849V231.067H249.685C249.737 230.432 249.888 229.807 250.132 229.217C250.441 228.472 250.893 227.795 251.463 227.225C252.033 226.655 252.71 226.202 253.455 225.894C254.2 225.585 254.998 225.427 255.804 225.427Z" fill="#121212" stroke="#121212"/>
<path d="M291.882 225.989H287.357L284.878 205.897L291.883 205.897L291.882 225.989Z" fill="#F9E9E7" stroke="#121212"/>
<path d="M283.009 225.427H293.053V231.067H276.89C276.942 230.432 277.092 229.807 277.337 229.217C277.646 228.472 278.098 227.795 278.668 227.225C279.238 226.655 279.915 226.202 280.659 225.894C281.404 225.585 282.203 225.427 283.009 225.427Z" fill="#121212" stroke="#121212"/>
<path d="M238.165 150.78L238.163 150.778C237.811 150.259 237.576 149.669 237.477 149.049C237.377 148.43 237.415 147.796 237.586 147.192C237.758 146.589 238.06 146.031 238.471 145.557C238.882 145.082 239.392 144.704 239.965 144.449L240.158 144.362L240.231 144.163L258.619 93.4753L266.853 97.9693L245.813 146.512L245.733 146.696L245.802 146.884C246.168 147.875 246.158 148.967 245.773 149.951C245.388 150.936 244.655 151.745 243.714 152.225C242.773 152.705 241.688 152.824 240.665 152.557C239.642 152.291 238.753 151.659 238.165 150.78Z" fill="#F9E9E7" stroke="#121212"/>
<path d="M289.841 160.254L289.838 160.252C289.294 159.94 288.824 159.512 288.463 158.999C288.102 158.486 287.858 157.9 287.748 157.283C287.638 156.665 287.664 156.031 287.826 155.424C287.987 154.818 288.28 154.255 288.682 153.774L288.819 153.611L288.796 153.4L283.1 99.7812L292.47 100.209L294.843 153.063L294.852 153.264L294.996 153.402C295.76 154.133 296.229 155.118 296.315 156.172C296.4 157.225 296.097 158.274 295.461 159.118C294.826 159.963 293.903 160.545 292.867 160.754C291.831 160.963 290.754 160.785 289.841 160.254Z" fill="#F9E9E7" stroke="#121212"/>
<path d="M283.439 72.3124C283.439 78.0866 278.758 82.7675 272.985 82.7675C267.212 82.7675 262.531 78.0866 262.531 72.3124C262.531 66.5381 267.212 61.8573 272.985 61.8573C278.758 61.8573 283.439 66.5381 283.439 72.3124Z" fill="#F9E9E7" stroke="#121212"/>
<path d="M289.519 148.36H256.496L256.536 148.103C256.595 147.718 262.421 109.548 258.124 97.0601C257.693 95.8329 257.731 94.4896 258.231 93.2887C258.73 92.0878 259.657 91.1142 260.831 90.5554C266.973 87.6627 278.763 84.1007 288.714 92.745C290.178 94.038 291.321 95.654 292.054 97.4651C292.786 99.2763 293.087 101.233 292.932 103.18L289.519 148.36Z" fill="#527CE5"/>
<path d="M262.839 115.189L247.971 112.172L254.94 95.6555C255.357 94.0558 256.392 92.6868 257.816 91.8489C259.241 91.0109 260.94 90.7724 262.541 91.1856C264.141 91.5989 265.513 92.6301 266.354 94.0532C267.195 95.4763 267.438 97.175 267.029 98.7767L262.839 115.189Z" fill="#527CE5"/>
<path d="M281.88 120.79L280.986 100.298C280.308 96.4464 282.513 92.8049 285.904 92.2097C289.296 91.6167 292.608 94.2883 293.289 98.1687L296.648 117.316L281.88 120.79Z" fill="#527CE5"/>
<path d="M272.316 165.467L265.24 219.423L258.111 219.027C258.007 217.749 257.903 216.478 257.799 215.216C256.725 202.1 255.726 189.893 255.362 178.995C254.965 167.099 255.327 156.801 257.161 148.609L288.041 146.434C293.204 166.405 293.797 191.721 292.408 219.385L286.15 218.603L273.297 165.414L272.316 165.467Z" fill="#121212" stroke="#121212"/>
<path d="M274.596 78.768L274.596 78.7684C274.82 81.2712 278.061 82.3294 279.838 80.4366C280.664 79.5562 281.631 78.4526 282.471 77.3008C283.317 76.1414 284.007 74.9672 284.314 73.9427C285.372 70.4066 285.151 66.3947 283.086 63.4441C281.383 61.0104 278.614 59.4888 275.732 58.3656C273.199 57.3784 270.556 56.6666 267.921 56.8325C265.287 56.9984 262.67 58.1481 261.197 60.2375C260.612 61.0671 260.29 62.1741 260.339 63.1852C260.388 64.1928 260.796 65.0317 261.586 65.4673L261.344 65.9051L261.586 65.4673C261.955 65.671 262.398 65.7877 262.903 65.8668C263.226 65.9174 263.541 65.9486 263.867 65.981C264.067 66.001 264.273 66.0214 264.488 66.0471C265.528 66.1715 266.73 66.4118 267.339 67.5522C267.755 68.3292 267.673 69.238 267.608 69.9586C267.603 70.0132 267.598 70.0667 267.593 70.1191C267.522 70.9476 267.518 71.5224 267.851 71.9503L267.456 72.2574L267.851 71.9503C268.113 72.2878 268.474 72.4265 268.981 72.4398C269.494 72.4534 270.082 72.336 270.75 72.2026C270.772 72.1981 270.795 72.1936 270.818 72.189C271.481 72.0566 272.226 71.912 272.915 71.9589C273.632 72.0077 274.329 72.2664 274.844 72.9571L274.849 72.963L274.849 72.963C275.103 73.3135 275.263 73.723 275.315 74.1526C275.419 74.9542 275.249 75.6831 275.061 76.3336C275.018 76.4795 274.976 76.6199 274.935 76.7563C274.784 77.2541 274.649 77.6997 274.6 78.1706L274.596 78.768ZM274.596 78.768C274.578 78.5693 274.579 78.3694 274.6 78.171L274.596 78.768Z" fill="#121212" stroke="#121212"/>
<path d="M374.611 231.279H45.3515C45.3434 231.279 45.3357 231.276 45.3299 231.27C45.3241 231.264 45.3209 231.256 45.3209 231.248C45.3209 231.24 45.3241 231.232 45.3299 231.226C45.3357 231.22 45.3434 231.217 45.3515 231.217H374.611C374.619 231.217 374.627 231.22 374.633 231.226C374.639 231.232 374.642 231.24 374.642 231.248C374.642 231.256 374.639 231.264 374.633 231.27C374.627 231.276 374.619 231.279 374.611 231.279Z" fill="#FEFEFE" stroke="#121212"/>
<path d="M209.166 182.597H209.163H151.186H151.184C150.552 182.601 149.946 182.354 149.496 181.91L149.145 182.266L149.496 181.91C149.048 181.467 148.793 180.865 148.787 180.234V50.8123C148.793 50.1817 149.048 49.5789 149.496 49.1359C149.946 48.6925 150.552 48.4454 151.184 48.4488L151.184 48.4488H151.186L209.163 48.4488L209.166 48.4488C209.797 48.4454 210.404 48.6925 210.853 49.1359C211.302 49.5789 211.557 50.1816 211.562 50.8122V180.234C211.557 180.865 211.302 181.467 210.853 181.91C210.404 182.354 209.797 182.601 209.166 182.597Z" fill="#FEFEFE" stroke="#121212"/>
<mask id="path-22-inside-1_577_18360" fill="white">
<path d="M212.062 89.8268H148.287V90.7188H212.062V89.8268Z"/>
</mask>
<path d="M212.062 89.8268H148.287V90.7188H212.062V89.8268Z" fill="#FEFEFE"/>
<path d="M148.287 89.8268V88.8268H147.287V89.8268H148.287ZM212.062 89.8268H213.062V88.8268H212.062V89.8268ZM212.062 90.7188V91.7188H213.062V90.7188H212.062ZM148.287 90.7188H147.287V91.7188H148.287V90.7188ZM148.287 90.8268H212.062V88.8268H148.287V90.8268ZM211.062 89.8268V90.7188H213.062V89.8268H211.062ZM212.062 89.7188H148.287V91.7188H212.062V89.7188ZM149.287 90.7188V89.8268H147.287V90.7188H149.287Z" fill="#121212" mask="url(#path-22-inside-1_577_18360)"/>
<mask id="path-24-inside-2_577_18360" fill="white">
<path d="M212.285 140.724H148.51V141.616H212.285V140.724Z"/>
</mask>
<path d="M212.285 140.724H148.51V141.616H212.285V140.724Z" fill="#FEFEFE"/>
<path d="M148.51 140.724V139.724H147.51V140.724H148.51ZM212.285 140.724H213.285V139.724H212.285V140.724ZM212.285 141.616V142.616H213.285V141.616H212.285ZM148.51 141.616H147.51V142.616H148.51V141.616ZM148.51 141.724H212.285V139.724H148.51V141.724ZM211.285 140.724V141.616H213.285V140.724H211.285ZM212.285 140.616H148.51V142.616H212.285V140.616ZM149.51 141.616V140.724H147.51V141.616H149.51Z" fill="#121212" mask="url(#path-24-inside-2_577_18360)"/>
<mask id="path-26-inside-3_577_18360" fill="white">
<path d="M169.248 47.9487H168.356V183.543H169.248V47.9487Z"/>
</mask>
<path d="M169.248 47.9487H168.356V183.543H169.248V47.9487Z" fill="#FEFEFE"/>
<path d="M168.356 47.9487V46.9487H167.356V47.9487H168.356ZM169.248 47.9487H170.248V46.9487H169.248V47.9487ZM169.248 183.543V184.543H170.248V183.543H169.248ZM168.356 183.543H167.356V184.543H168.356V183.543ZM168.356 48.9487H169.248V46.9487H168.356V48.9487ZM168.248 47.9487V183.543H170.248V47.9487H168.248ZM169.248 182.543H168.356V184.543H169.248V182.543ZM169.356 183.543V47.9487H167.356V183.543H169.356Z" fill="#121212" mask="url(#path-26-inside-3_577_18360)"/>
<mask id="path-28-inside-4_577_18360" fill="white">
<path d="M191.547 47.9487H190.655V183.543H191.547V47.9487Z"/>
</mask>
<path d="M191.547 47.9487H190.655V183.543H191.547V47.9487Z" fill="#FEFEFE"/>
<path d="M190.655 47.9487V46.9487H189.655V47.9487H190.655ZM191.547 47.9487H192.547V46.9487H191.547V47.9487ZM191.547 183.543V184.543H192.547V183.543H191.547ZM190.655 183.543H189.655V184.543H190.655V183.543ZM190.655 48.9487H191.547V46.9487H190.655V48.9487ZM190.547 47.9487V183.543H192.547V47.9487H190.547ZM191.547 182.543H190.655V184.543H191.547V182.543ZM191.655 183.543V47.9487H189.655V183.543H191.655Z" fill="#121212" mask="url(#path-28-inside-4_577_18360)"/>
</g>
<defs>
<clipPath id="clip0_577_18360">
<rect width="388" height="232" fill="white"/>
</clipPath>
</defs>
</svg>
