<svg width="364" height="373" viewBox="0 0 364 373" fill="none" xmlns="http://www.w3.org/2000/svg">
<path d="M14 372.108C14 372.386 14.2535 372.608 14.5692 372.608H363.431C363.746 372.608 364 372.386 364 372.108C364 371.831 363.746 371.608 363.431 371.608H14.5692C14.2535 371.608 14 371.831 14 372.108Z" fill="#C8C8C8"/>
<path d="M175.344 65.8328H13.5121C7.34047 65.8328 2.31738 60.8097 2.31738 54.6381C2.31738 48.4664 7.34047 43.4434 13.5121 43.4434H175.344C181.516 43.4434 186.539 48.4664 186.539 54.6381C186.539 60.8097 181.516 65.8328 175.344 65.8328ZM13.5121 44.8271C8.10154 44.8271 3.70115 49.2275 3.70115 54.6381C3.70115 60.0486 8.10154 64.449 13.5121 64.449H175.344C180.755 64.449 185.155 60.0486 185.155 54.6381C185.155 49.2275 180.755 44.8271 175.344 44.8271H13.5121Z" fill="#121212"/>
<path d="M175.345 196.841H13.5128C7.52801 196.841 2.66406 191.977 2.66406 185.992C2.66406 180.008 7.52801 175.144 13.5128 175.144H175.345C181.329 175.144 186.193 180.008 186.193 185.992C186.193 191.977 181.329 196.841 175.345 196.841Z" fill="#A0C0F3"/>
<path d="M122.311 21.6975H10.8488C4.86395 21.6975 0 16.8336 0 10.8488C0 4.86395 4.86395 0 10.8488 0H122.311C128.296 0 133.16 4.86395 133.16 10.8488C133.16 16.8336 128.296 21.6975 122.311 21.6975Z" fill="#E3E3E3"/>
<path d="M175.344 109.615H13.5121C7.34047 109.615 2.31738 104.592 2.31738 98.4203C2.31738 92.2487 7.34047 87.2256 13.5121 87.2256H175.344C181.516 87.2256 186.539 92.2487 186.539 98.4203C186.539 104.592 181.516 109.615 175.344 109.615ZM13.5121 88.6094C8.10154 88.6094 3.70115 93.0097 3.70115 98.4203C3.70115 103.831 8.10154 108.231 13.5121 108.231H175.344C180.755 108.231 185.155 103.831 185.155 98.4203C185.155 93.0097 180.755 88.6094 175.344 88.6094H13.5121Z" fill="#121212"/>
<path d="M175.344 153.405H13.5121C7.34047 153.405 2.31738 148.382 2.31738 142.21C2.31738 136.039 7.34047 131.016 13.5121 131.016H175.344C181.516 131.016 186.539 136.039 186.539 142.21C186.539 148.382 181.516 153.405 175.344 153.405ZM13.5121 132.399C8.10154 132.399 3.70115 136.8 3.70115 142.21C3.70115 147.621 8.10154 152.021 13.5121 152.021H175.344C180.755 152.021 185.155 147.621 185.155 142.21C185.155 136.8 180.755 132.399 175.344 132.399H13.5121Z" fill="#121212"/>
<path d="M7.94971 35.4043H50.3623C51.3724 35.4043 52.1958 36.2207 52.1958 37.2378C52.1958 38.2479 51.3724 39.0713 50.3623 39.0713H7.94971C6.93955 39.0713 6.11621 38.2549 6.11621 37.2378C6.11621 36.2276 6.93955 35.4043 7.94971 35.4043Z" fill="#A0C0F3"/>
<path d="M7.94971 80.2236H50.3623C51.3724 80.2236 52.1958 81.0401 52.1958 82.0502C52.1958 83.0604 51.3724 83.8837 50.3623 83.8837H7.94971C6.93955 83.8837 6.11621 83.0673 6.11621 82.0571C6.11621 81.047 6.93955 80.2236 7.94971 80.2236Z" fill="#A0C0F3"/>
<path d="M7.94971 125.051H50.3623C51.3724 125.051 52.1958 125.867 52.1958 126.884C52.1958 127.894 51.3724 128.711 50.3623 128.711H7.94971C6.93955 128.711 6.11621 127.894 6.11621 126.877C6.11621 125.867 6.93955 125.051 7.94971 125.051Z" fill="#A0C0F3"/>
<path d="M307.436 74.8291L308.797 91.157L294.357 95.9099V74.8291H307.436Z" fill="#F9E9E7" stroke="#121212"/>
<path d="M310.689 65.0783C310.689 73.3157 304.011 79.9935 295.774 79.9935C287.536 79.9935 280.858 73.3157 280.858 65.0783C280.858 56.8408 287.536 50.1631 295.774 50.1631C304.011 50.1631 310.689 56.8408 310.689 65.0783Z" fill="#F9E9E7" stroke="#121212"/>
<mask id="path-12-inside-1_598_58000" fill="white">
<path d="M300.008 63.5496C297.428 63.4735 295.733 60.8651 294.729 58.485C293.726 56.1049 292.695 53.372 290.301 52.3895C288.343 51.5869 284.891 57.0182 283.348 55.5722C281.736 54.0639 283.306 46.3217 285.015 44.931C286.724 43.5403 289.063 43.2705 291.263 43.1667C296.632 42.9176 302.036 43.3535 307.301 44.4536C310.56 45.1316 313.908 46.1556 316.261 48.508C319.236 51.497 319.997 56.0012 320.211 60.2147C320.433 64.5252 320.184 69.0363 318.087 72.807C315.991 76.5778 311.604 79.3592 307.398 78.3975C306.976 76.1143 307.405 73.7688 307.571 71.444C307.73 69.1262 307.564 66.6216 306.145 64.7743C304.734 62.9269 301.703 62.1935 300.057 63.8333"/>
</mask>
<path d="M300.008 63.5496C297.428 63.4735 295.733 60.8651 294.729 58.485C293.726 56.1049 292.695 53.372 290.301 52.3895C288.343 51.5869 284.891 57.0182 283.348 55.5722C281.736 54.0639 283.306 46.3217 285.015 44.931C286.724 43.5403 289.063 43.2705 291.263 43.1667C296.632 42.9176 302.036 43.3535 307.301 44.4536C310.56 45.1316 313.908 46.1556 316.261 48.508C319.236 51.497 319.997 56.0012 320.211 60.2147C320.433 64.5252 320.184 69.0363 318.087 72.807C315.991 76.5778 311.604 79.3592 307.398 78.3975C306.976 76.1143 307.405 73.7688 307.571 71.444C307.73 69.1262 307.564 66.6216 306.145 64.7743C304.734 62.9269 301.703 62.1935 300.057 63.8333" fill="#121212"/>
<path d="M290.301 52.3895L290.681 51.4644L290.68 51.4642L290.301 52.3895ZM283.348 55.5722L284.032 54.8425L284.031 54.842L283.348 55.5722ZM291.263 43.1667L291.217 42.1678L291.216 42.1678L291.263 43.1667ZM307.301 44.4536L307.096 45.4325L307.097 45.4326L307.301 44.4536ZM316.261 48.508L316.969 47.8026L316.968 47.8009L316.261 48.508ZM320.211 60.2147L319.213 60.2656L319.213 60.266L320.211 60.2147ZM307.398 78.3975L306.414 78.5792L306.534 79.2258L307.175 79.3723L307.398 78.3975ZM307.571 71.444L308.568 71.5153L308.568 71.5125L307.571 71.444ZM306.145 64.7743L305.351 65.3814L305.352 65.3833L306.145 64.7743ZM300.038 62.5501C299.108 62.5226 298.277 62.0443 297.517 61.2087C296.752 60.3672 296.131 59.235 295.651 58.0966L293.808 58.8734C294.331 60.1152 295.059 61.4772 296.037 62.5539C297.021 63.6366 298.328 64.5005 299.979 64.5492L300.038 62.5501ZM295.651 58.0966C295.164 56.9411 294.621 55.5734 293.887 54.3872C293.144 53.1858 292.146 52.0657 290.681 51.4644L289.922 53.3146C290.85 53.6958 291.564 54.4334 292.186 55.4391C292.818 56.46 293.292 57.6489 293.808 58.8734L295.651 58.0966ZM290.68 51.4642C289.713 51.0676 288.746 51.5014 288.091 51.894C287.388 52.3159 286.657 52.9335 286.031 53.4518C285.358 54.0088 284.808 54.4488 284.353 54.6825C284.131 54.7965 284.013 54.8169 283.974 54.8183C283.963 54.8187 283.974 54.8168 283.998 54.8252C284.022 54.8341 284.034 54.8452 284.032 54.8425L282.664 56.3018C283.064 56.6772 283.551 56.8342 284.044 56.8171C284.497 56.8013 284.917 56.641 285.267 56.4617C285.954 56.1088 286.679 55.5122 287.306 54.9925C287.981 54.434 288.577 53.9347 289.12 53.6092C289.712 53.2542 289.911 53.3101 289.922 53.3148L290.68 51.4642ZM284.031 54.842C284.008 54.8201 283.925 54.7196 283.844 54.4507C283.766 54.1918 283.71 53.8443 283.686 53.4139C283.639 52.5536 283.727 51.4813 283.921 50.381C284.114 49.284 284.405 48.202 284.741 47.3263C285.098 46.3957 285.44 45.8745 285.646 45.7066L284.384 44.1554C283.736 44.6828 283.241 45.6509 282.873 46.6102C282.484 47.6245 282.163 48.833 281.951 50.034C281.74 51.2316 281.631 52.4646 281.689 53.5236C281.718 54.0529 281.791 54.5685 281.929 55.0272C282.064 55.4758 282.285 55.9472 282.665 56.3024L284.031 54.842ZM285.646 45.7066C287.075 44.5443 289.101 44.2698 291.31 44.1656L291.216 42.1678C289.025 42.2712 286.374 42.5363 284.384 44.1554L285.646 45.7066ZM291.309 44.1656C296.594 43.9205 301.913 44.3495 307.096 45.4325L307.505 43.4747C302.158 42.3575 296.67 41.9148 291.217 42.1678L291.309 44.1656ZM307.097 45.4326C310.331 46.1055 313.423 47.0848 315.554 49.2151L316.968 47.8009C314.393 45.2265 310.788 44.1578 307.505 43.4746L307.097 45.4326ZM315.552 49.2135C318.242 51.9159 318.999 56.0744 319.213 60.2656L321.21 60.1639C320.994 55.9279 320.23 51.0781 316.969 47.8026L315.552 49.2135ZM319.213 60.266C319.432 64.5336 319.167 68.8062 317.213 72.3211L318.961 73.293C321.2 69.2663 321.434 64.5167 321.21 60.1634L319.213 60.266ZM317.213 72.3211C315.258 75.838 311.26 78.2546 307.621 77.4226L307.175 79.3723C311.949 80.4638 316.724 77.3176 318.961 73.293L317.213 72.3211ZM308.381 78.2157C307.99 76.0997 308.391 73.9924 308.568 71.5153L306.573 71.3728C306.418 73.5451 305.961 76.1288 306.414 78.5792L308.381 78.2157ZM308.568 71.5125C308.73 69.1514 308.594 66.3209 306.939 64.1653L305.352 65.3833C306.534 66.9223 306.729 69.1011 306.573 71.3755L308.568 71.5125ZM306.94 64.1671C306.073 63.032 304.736 62.2634 303.37 62.0126C301.999 61.7608 300.466 62.0148 299.351 63.1247L300.762 64.5419C301.295 64.012 302.1 63.8129 303.009 63.9797C303.922 64.1474 304.807 64.6691 305.351 65.3814L306.94 64.1671Z" fill="#121212" mask="url(#path-12-inside-1_598_58000)"/>
<mask id="path-14-inside-2_598_58000" fill="white">
<path d="M318.973 68.8912C320.516 67.7634 322.363 66.8155 324.259 67.0508C326.307 67.2999 328.044 68.9881 328.569 70.9876C329.095 72.9872 328.507 75.1873 327.234 76.8202C325.968 78.453 324.079 79.5324 322.086 80.0721C320.931 80.3834 319.665 80.5149 318.565 80.0444C316.946 79.3456 316.067 77.2768 316.703 75.6302"/>
</mask>
<path d="M318.973 68.8912C320.516 67.7634 322.363 66.8155 324.259 67.0508C326.307 67.2999 328.044 68.9881 328.569 70.9876C329.095 72.9872 328.507 75.1873 327.234 76.8202C325.968 78.453 324.079 79.5324 322.086 80.0721C320.931 80.3834 319.665 80.5149 318.565 80.0444C316.946 79.3456 316.067 77.2768 316.703 75.6302" fill="#121212"/>
<path d="M324.259 67.0508L324.136 68.0432L324.138 68.0435L324.259 67.0508ZM327.234 76.8202L326.445 76.2053L326.444 76.2074L327.234 76.8202ZM322.086 80.0721L322.347 81.0376L322.348 81.0373L322.086 80.0721ZM318.565 80.0444L318.168 80.9625L318.171 80.9638L318.565 80.0444ZM319.563 69.6985C321.058 68.6057 322.636 67.8571 324.136 68.0432L324.382 66.0584C322.09 65.774 319.973 66.9212 318.383 68.0839L319.563 69.6985ZM324.138 68.0435C325.73 68.237 327.167 69.5878 327.602 71.2419L329.536 70.7333C328.92 68.3884 326.884 66.3627 324.38 66.0581L324.138 68.0435ZM327.602 71.2419C328.037 72.8946 327.557 74.7791 326.445 76.2053L328.023 77.4351C329.457 75.5956 330.154 73.0797 329.536 70.7333L327.602 71.2419ZM326.444 76.2074C325.34 77.6305 323.659 78.61 321.825 79.1068L322.348 81.0373C324.499 80.4547 326.595 79.2756 328.024 77.433L326.444 76.2074ZM321.826 79.1065C320.746 79.3977 319.748 79.4629 318.958 79.1249L318.171 80.9638C319.581 81.5669 321.116 81.3691 322.347 81.0376L321.826 79.1065ZM318.961 79.1263C317.831 78.6384 317.195 77.1317 317.636 75.9907L315.771 75.2696C314.939 77.4219 316.061 80.0527 318.168 80.9625L318.961 79.1263Z" fill="#121212" mask="url(#path-14-inside-2_598_58000)"/>
<path d="M269.17 128.351L284.091 131.161L271.417 210.074L271.4 210.184L271.43 210.29C271.975 212.204 272.041 214.211 271.623 216.15L271.621 216.157C271.126 218.607 270.023 220.679 268.667 222.051C267.306 223.427 265.741 224.057 264.284 223.777C262.828 223.497 261.628 222.34 260.907 220.569C260.187 218.802 259.974 216.481 260.473 214.031L260.474 214.032C260.846 212.078 261.69 210.243 262.947 208.674L263.043 208.553L263.055 208.4L269.17 128.351Z" fill="#F9E9E7" stroke="#121212"/>
<path d="M293.691 86.3818H282.808C275.114 87.5511 273.025 91.654 271.274 99.2371C268.603 110.805 265.192 126.207 265.871 126.435C266.957 126.795 285.485 135.513 294.93 133.52L293.691 86.3818Z" fill="#527CE5"/>
<path d="M290.227 359.328V339.772H303.715V359.328H290.227Z" fill="#F9E9E7" stroke="#121212"/>
<path d="M271.764 371.639L271.763 371.639C269.941 371.472 268.134 370.711 266.537 369.768C264.945 368.828 263.592 367.725 262.683 366.908C262.012 366.304 261.799 365.341 262.145 364.513C262.399 363.916 262.897 363.471 263.514 363.299L263.514 363.299L263.517 363.298L273.688 360.392L273.764 360.37L273.83 360.326L289.846 349.519C290.186 350.142 291.488 352.583 291.95 354.267L291.95 354.268C292.133 354.926 292.063 355.389 291.853 355.718C291.708 355.942 291.494 356.083 291.304 356.17L290.665 356.462L291.15 356.97C291.564 357.404 292.635 358.062 295.543 358.523L295.544 358.523C296.685 358.704 297.63 358.547 298.402 358.183C299.169 357.822 299.735 357.271 300.147 356.707C300.885 355.697 301.158 354.603 301.22 354.318C302.187 353.698 302.956 353.254 303.528 352.98C303.82 352.84 304.047 352.751 304.214 352.705C304.271 352.689 304.315 352.679 304.347 352.674C304.416 352.836 304.52 353.181 304.657 353.895C304.946 355.396 305.354 358.374 305.952 364.3L305.957 364.351L305.973 364.4C306.089 364.767 306.886 367.382 306.349 369.851L306.349 369.852C306.312 370.02 306.177 370.218 305.837 370.424C305.498 370.63 305.01 370.809 304.39 370.955C303.154 371.247 301.51 371.383 299.777 371.424C296.319 371.507 292.621 371.21 291.383 371.099L291.336 371.095L291.289 371.1C291.289 371.1 291.286 371.1 291.278 371.101C291.24 371.103 291.104 371.113 290.87 371.129C290.598 371.148 290.206 371.175 289.717 371.206C288.739 371.269 287.375 371.353 285.814 371.436C282.692 371.603 278.792 371.769 275.626 371.769H275.619C274.101 371.769 272.764 371.734 271.764 371.639Z" fill="#121212" stroke="#121212"/>
<path d="M344.213 347.542L333.865 330.949L345.309 323.811L355.658 340.405L344.213 347.542Z" fill="#F9E9E7" stroke="#121212"/>
<path d="M344.178 343.639C344.192 343.065 343.908 342.504 343.334 341.978C341.976 340.727 339.463 339.288 338.903 338.974L344.178 343.639ZM344.178 343.639C344.175 343.817 344.143 343.979 344.096 344.123M344.178 343.639L344.096 344.123M344.096 344.123C344.054 344.117 344.021 344.11 343.996 344.104L343.867 344.587L344.283 344.864C344.328 344.797 344.373 344.722 344.417 344.639C345.054 344.625 346.177 344.415 348.094 343.604C352.01 341.951 350.46 337.785 350.391 337.612L344.096 344.123ZM335.049 367.775C333.422 368.594 331.5 368.905 329.666 368.953H329.143C327.48 368.953 325.947 368.75 324.85 368.559C323.967 368.402 323.272 367.697 323.126 366.813C323.025 366.17 323.212 365.53 323.645 365.059L323.647 365.056L330.739 357.21L330.792 357.151L330.825 357.078L338.699 339.432C339.322 339.784 341.711 341.162 342.995 342.346L342.996 342.347C343.503 342.811 343.688 343.242 343.678 343.627L343.678 343.63C343.673 343.905 343.57 344.13 343.451 344.309L343.064 344.89L343.738 345.07C344.32 345.225 345.58 345.21 348.289 344.065C349.353 343.616 350.072 342.983 350.535 342.266C350.995 341.554 351.185 340.787 351.236 340.09C351.327 338.849 350.984 337.78 350.88 337.493C351.372 336.455 351.788 335.673 352.127 335.139C352.301 334.866 352.446 334.671 352.562 334.543C352.604 334.498 352.637 334.466 352.661 334.445C352.805 334.545 353.076 334.782 353.572 335.318C354.61 336.44 356.53 338.752 360.173 343.467L360.206 343.51L360.248 343.545C360.535 343.785 362.595 345.588 363.447 347.966C363.505 348.128 363.494 348.367 363.315 348.722C363.136 349.076 362.816 349.486 362.368 349.939C361.472 350.841 360.15 351.826 358.701 352.779C355.811 354.678 352.518 356.382 351.411 356.94L351.365 356.964L351.324 356.996C351.325 356.995 351.313 357.005 351.286 357.024C351.218 357.074 351.06 357.188 350.816 357.365C350.485 357.604 350.01 357.945 349.428 358.36C348.263 359.191 346.667 360.318 344.925 361.518C341.431 363.925 337.386 366.6 335.049 367.775L335.049 367.775Z" fill="#121212" stroke="#121212"/>
<path d="M326.496 182.321C324.643 178.614 323.701 175.804 323.344 173.668C322.988 171.53 323.214 170.034 323.735 168.991C323.969 168.524 324.256 168.159 324.561 167.874H274.772L271.141 205.105L287.19 344.038H306.899L298.674 264.061L299.625 263.8L332.965 335.96L350.559 323.645L324.47 256.136L324.422 256.011L324.443 255.878L324.937 255.956C324.443 255.878 324.443 255.878 324.443 255.877L324.443 255.875L324.445 255.867L324.45 255.836L324.469 255.709C324.487 255.597 324.513 255.431 324.546 255.213C324.613 254.777 324.71 254.136 324.83 253.314C325.072 251.67 325.409 249.306 325.79 246.422C326.552 240.653 327.492 232.81 328.203 224.508C328.913 216.204 329.392 207.452 329.236 199.862C329.157 196.068 328.92 192.572 328.476 189.573C328.031 186.568 327.382 184.093 326.496 182.321ZM326.496 182.321L326.943 182.097L326.496 182.321Z" fill="#121212" stroke="#121212"/>
<path d="M335.066 169.671H270.638L289.969 86.3818H318.039L335.066 169.671Z" fill="#527CE5"/>
<path d="M340.373 214.032L340.374 214.031C340.873 216.481 340.66 218.802 339.94 220.569C339.219 222.34 338.019 223.497 336.563 223.777C335.106 224.057 333.541 223.427 332.18 222.051C330.824 220.679 329.721 218.607 329.225 216.157L329.224 216.15C328.806 214.211 328.872 212.204 329.417 210.29L329.447 210.184L329.43 210.074L316.755 131.161L331.677 128.351L337.792 208.4L337.804 208.553L337.9 208.674C339.157 210.243 340.001 212.078 340.373 214.032Z" fill="#F9E9E7" stroke="#121212"/>
<path d="M307.155 86.3818H318.039C325.733 87.5511 327.822 91.654 329.573 99.2371C332.243 110.805 335.654 126.207 334.976 126.435C333.89 126.795 315.361 135.513 305.917 133.52L307.155 86.3818Z" fill="#527CE5"/>
</svg>
